<svg width="345" height="274" viewBox="0 0 345 274" fill="none" xmlns="http://www.w3.org/2000/svg">
<g opacity="0.7" filter="url(#filter0_i)">
<path d="M185.422 152.987L189.973 155.436L205.83 156.448L191.423 150.767L207.259 145.733L176.72 153.748L179.391 148.916L185.422 152.987Z" fill="#BB0000"/>
<path d="M207.259 145.733L189.89 149.239L186.261 139.838L196.51 136.899L170.053 148.055L99.035 154.991L198.966 148.448L189.973 155.436L205.83 156.448L191.423 150.767L207.259 145.733Z" fill="#BB0000"/>
<path d="M237.959 109.98L232.955 108.689L217.315 111.494L232.663 113.569L218.487 122.24L246.228 107.162L244.788 112.492L237.959 109.98Z" fill="#BB0000"/>
<path d="M218.487 122.24L234.515 114.686L240.285 122.948L231.035 128.25L254.061 111.098L220.802 124.985L225.892 117.622L232.955 108.689L217.315 111.494L232.663 113.569L218.487 122.24Z" fill="#BB0000"/>
<path d="M86.621 228.656L80.6814 231.464L89.9337 229.549L85.1955 243.814L82.7916 235.939L83.1941 234.073L92.5095 219.59L95.3212 225.494L86.621 228.656Z" fill="#BB0000"/>
<path d="M83.1941 234.073L86.97 235.591L99.189 238.407L94.3067 250.472L103.326 216.905L81.6646 255.657L91.7864 233.358L80.6814 231.464L89.9337 229.549L85.1955 243.814L82.7916 235.939L83.1941 234.073Z" fill="#BB0000"/>
<path d="M68.5 232.293L97.5965 216.993L86.4351 232.293L105.083 218.751L77.4835 222.337L68.5 232.293Z" fill="#520000"/>
<path d="M105.083 218.751L102.4 215.732L88.2038 219.458L80.8087 221.949L98.8731 210.79L68.5 232.293L97.5965 216.993L86.4351 232.293L105.083 218.751Z" fill="#520000"/>
<path d="M209.379 156.494L207.145 147.927L204.912 139.361L193.215 135.434L186.375 142.816L197.881 142.77L213.552 147.17L209.379 156.494Z" fill="#6B0000"/>
<path d="M186.375 142.816L204.912 161.524L217.787 167.532L213.552 161.524L227.555 163.949L204.912 139.361L193.215 135.434L186.375 142.816Z" fill="#6B0000"/>
<path d="M160.876 147.128L169.721 146.749L178.566 146.37L184.868 135.763L179.093 127.522L176.714 138.779L169.111 153.172L160.876 147.128Z" fill="#6B0000"/>
<path d="M179.093 127.522L156.9 141.701L148.315 153.022L155.08 150.148L149.76 163.326L178.566 146.37L184.868 135.763L179.093 127.522Z" fill="#6B0000"/>
<path d="M102.068 214.542L110.913 214.163L115.335 213.974L121.638 203.366L115.863 195.125L117.906 206.193L110.303 220.586L102.068 214.542Z" fill="#6B0000"/>
<path d="M115.863 195.125L93.6695 209.305L85.0847 220.625L112.733 207.802L86.5295 230.929L115.335 213.974L121.638 203.366L115.863 195.125Z" fill="#6B0000"/>
<path d="M249.186 94.1079L249.942 85.4402L250.698 76.7724L241.456 68.7622L232.931 72.9156L243.282 77.2263L255.942 87.1724L249.186 94.1079Z" fill="#6B0000"/>
<path d="M232.931 72.9156L232.511 75.4173L240.512 84.5808L243.834 82.1202L263.111 107.791L250.698 76.7724L241.456 68.7622L232.931 72.9156Z" fill="#6B0000"/>
<path d="M223.445 119.559L214.626 120.343L205.808 121.127L199.999 132.012L206.145 139.979L208.006 128.625L214.941 113.899L223.445 119.559Z" fill="#6B0000"/>
<path d="M206.145 139.979L227.665 124.798L235.722 113.096L229.097 116.277L233.807 102.869L205.808 121.127L199.999 132.012L206.145 139.979Z" fill="#6B0000"/>
<path d="M230.333 189.695L236.468 167.267L225.717 179.798L230.705 177.754L217.011 154.597L240.365 182.533L238.734 202.609L230.333 189.695Z" fill="#BB0000"/>
<path d="M217.011 154.597L212.348 172.637L204 167.267L193.882 159.46L174.348 172.637L180.907 164.277L184.5 159.46L212.348 156.898L236.468 167.267L225.717 179.798L230.705 177.754L217.011 154.597Z" fill="#BB0000"/>
<path d="M243.86 187.048L227.834 187.048L226.199 200.648L231.483 198.945L192.386 207.206L251.501 181.31L251.501 190.05L243.86 187.048Z" fill="#BB0000"/>
<path d="M192.386 207.206L211.167 192.566L183.182 200.694L189.744 192.338L227.834 187.048L226.199 200.648L231.483 198.945L192.386 207.206Z" fill="#BB0000"/>
<path d="M282.868 92.5781L290.164 76.445L283.535 66.0385L273.576 67.4799L282.553 74.6771L291.975 87.9502L282.868 92.5781Z" fill="#6B0000"/>
<path d="M273.576 67.4799L278.853 81.5301L282.469 106.447L280.76 93.6496L290.164 76.445L283.535 66.0385L273.576 67.4799Z" fill="#6B0000"/>
<path d="M276.52 125.675L272.197 113.798L263.855 110.214L259.681 114.622L267.603 115.522L278.716 119.746L276.52 125.675Z" fill="#6B0000"/>
<path d="M259.681 114.622L269.144 120.782L283.113 133.772L276.011 127.047L289.58 132.154L272.197 113.798L263.855 110.214L259.681 114.622Z" fill="#6B0000"/>
<path d="M194.681 51.1549L209.364 58.1499L221.728 60.6206L222.792 58.3194L213.12 57.4017L197.103 54.4246L194.681 51.1549Z" fill="#6B0000"/>
<path d="M222.792 58.3194L207.037 54.3222L180.56 46.199L194.121 50.3979L174.606 46.7919L209.364 58.1499L221.728 60.6206L222.792 58.3194Z" fill="#6B0000"/>
<path d="M144.03 188.055L154.409 170.518L144.019 183.466L147.741 179.963L145.905 170.468L154.259 178.052L145.532 193.023L144.03 188.055Z" fill="#BB0000"/>
<path d="M145.905 170.468L139.279 183.346L119.842 201.323L126.389 192.949L154.409 170.518L144.019 183.466L147.741 179.963L145.905 170.468Z" fill="#BB0000"/>
<path d="M152.705 171.602L135.2 168.94L116.964 187.758L143.154 178.455L135.556 176.746L145.787 164.086L152.705 171.602Z" fill="#6B0000"/>
<path d="M143.154 178.455L166.165 168.236L154.306 173.342L166.731 157.847L135.2 168.94L116.964 187.758L143.154 178.455Z" fill="#6B0000"/>
<path d="M222.906 194.134L207.864 184.794L196.681 190.007L196.81 200.07L205.117 192.109L219.507 184.501L222.906 194.134Z" fill="#6B0000"/>
<path d="M196.81 200.07L211.429 196.673L236.605 196.341L223.693 196.364L233.872 184.794L207.864 184.794L196.681 190.007L196.81 200.07Z" fill="#6B0000"/>
<path d="M159.619 205.283L174.238 201.886L199.414 201.554L186.502 201.577L196.681 190.007L170.673 190.007L159.49 195.221L159.619 205.283Z" fill="#6B0000"/>
<path d="M212.052 138.034L232.975 128.935L220.495 127.21L197.296 131.426L215.993 131.013L234.126 132.859L212.052 138.034Z" fill="#6B0000"/>
<path d="M197.296 131.426L205.728 135.098L207.522 143.709L206.941 139.232L232.975 128.935L220.495 127.21L197.296 131.426Z" fill="#6B0000"/>
<path d="M220.932 79.1055L228.228 62.9724L221.599 52.5659L211.64 54.0073L220.616 61.2044L230.038 74.4776L220.932 79.1055Z" fill="#6B0000"/>
<path d="M211.64 54.0073L216.916 68.0574L220.533 92.9748L218.824 80.1769L228.228 62.9724L221.599 52.5659L211.64 54.0073Z" fill="#6B0000"/>
<path d="M274.753 101.618L285.031 100.082L288.213 91.2183L292.402 87.3429L290.052 76.392L286.257 90.5352L276.605 107.367L274.753 101.618Z" fill="#BB0000"/>
<path d="M290.052 76.392L275.459 92.3738L265.34 110.646L272.652 101.294L285.031 100.082L288.213 91.2183L292.402 87.3429L290.052 76.392Z" fill="#BB0000"/>
<path d="M303.409 101.027L309.998 104.217L309.725 99.7798L311.514 98.9785L306.891 90.9397L308.202 98.5419L306.258 105.499L303.409 101.027Z" fill="#BB0000"/>
<path d="M306.891 90.9397L303.97 96.8004L299.477 103.035L301.887 99.9626L309.998 104.217L309.725 99.7798L311.514 98.9785L306.891 90.9397Z" fill="#BB0000"/>
<path d="M231.628 101.91L249.697 109.35L249.672 96.7915L254.86 94.0668L243.157 72.3398L245.58 93.647L238.921 113.927L231.628 101.91Z" fill="#BB0000"/>
<path d="M243.157 72.3398L233.924 89.7423L220.185 108.599L227.507 99.2581L249.697 109.35L249.672 96.7915L254.86 94.0668L243.157 72.3398Z" fill="#BB0000"/>
<path d="M292.853 133.855L276.174 130.985L281.575 138.136L278.73 138.682L297.094 153.312L285.601 135.854L282.061 125.604L292.853 133.855Z" fill="#BB0000"/>
<path d="M297.094 153.312L251.833 118.502L299.324 137.13L297.664 141.027L276.174 130.985L281.575 138.136L278.73 138.682L297.094 153.312Z" fill="#BB0000"/>
<path d="M247.769 116.172L264.673 115.63L247.553 93.5302L244.882 99.9181L265.711 107.71L255.694 92.628L254.823 121.498L251.175 119.354L247.769 116.172Z" fill="#BB0000"/>
<path d="M255.694 92.628L252.487 100.974L246.759 109.268L249.908 105.263L264.673 115.63L247.553 93.5302L244.882 99.9181L265.711 107.71L255.694 92.628Z" fill="#BB0000"/>
<path d="M288.305 89.8874L292.814 87.4415L285.512 86.3113L276.24 90.2596L284.57 88.4136L288.305 89.8874Z" fill="#520000"/>
<path d="M285.967 98.0269L286.217 95.9597L281.196 95.9597L283.348 96.6768L280.479 98.0269L285.896 98.5165L285.967 98.0269Z" fill="#520000"/>
<path d="M285.967 98.0269L286.217 95.9597L281.196 95.9597L283.348 96.6768L280.479 98.0269L285.896 98.5165L285.967 98.0269Z" fill="#520000"/>
<path d="M285.967 98.0269L286.217 95.9597L281.196 95.9597L283.348 96.6768L280.479 98.0269L285.896 98.5165L285.967 98.0269Z" fill="#520000"/>
<path d="M271.057 98.2523L275.565 95.8065L268.263 94.6763L258.992 98.6245L267.321 96.7785L271.057 98.2523Z" fill="white"/>
<path d="M289.815 88.0072L291.005 87.742L288.329 87.3292L283.612 87.9478L288.405 87.708L289.815 88.0072Z" fill="white"/>
<path d="M289.815 88.0072L291.005 87.742L288.329 87.3292L283.612 87.9478L288.405 87.708L289.815 88.0072Z" fill="white"/>
<path d="M289.815 88.0072L291.005 87.742L288.329 87.3292L283.612 87.9478L288.405 87.708L289.815 88.0072Z" fill="white"/>
<path d="M276.714 108.67L273.153 67.3494L263.8 72.8103L260.528 83.6078L276.714 108.67Z" fill="#520000"/>
<path d="M263.8 72.8103L260.963 79.1718L261.726 93.9694L262.564 101.151L256.185 84.7318L276.714 108.67L273.153 67.3494L263.8 72.8103Z" fill="#520000"/>
<path d="M264.474 109.125L271.631 94.7223L273.339 76.9546L265.254 79.9252L257.231 102.243L264.474 109.125Z" fill="#520000"/>
<path d="M265.254 79.9252L261.507 84.4367L257.972 95.8908L256.586 101.511L256.616 88.08L264.474 109.125L271.631 94.7223L273.339 76.9546L265.254 79.9252Z" fill="#520000"/>
<path d="M224.013 116.979L231.17 102.576L237.068 96.3517L232.878 84.8082L224.794 87.7788L223.414 110.111L224.013 116.979Z" fill="#520000"/>
<path d="M224.794 87.7788L216.949 87.223L217.512 103.744L216.125 109.364L216.155 95.9336L224.013 116.979L231.17 102.576L237.068 96.3517L232.878 84.8082L224.794 87.7788Z" fill="#520000"/>
<path d="M183.503 130.46L201.799 133.781L231.894 123.358L235.101 109.2L203.511 110.307L183.503 130.46Z" fill="#520000"/>
<path d="M235.101 109.2L230.961 105.091L214.132 106.848L205.507 108.419L229.588 97.9686L183.503 130.46L201.799 133.781L231.894 123.358L235.101 109.2Z" fill="#520000"/>
<path d="M140.678 183.003L162.682 168.441L167.892 150.511L192.276 161.743L167.892 168.441L140.678 183.003Z" fill="#520000"/>
<path d="M192.276 161.743L188.135 157.634L171.306 159.39L162.682 160.962L186.762 150.511L173.834 174.367L140.678 183.003L162.682 168.441L167.892 150.511L192.276 161.743Z" fill="#520000"/>
<path d="M307.874 103.377L301.096 131.23L296.559 145.807L289.185 146.789L299.666 134.834L307.874 103.377Z" fill="#520000"/>
<path d="M289.185 146.789L287.999 140.913L293.612 130.561L296.869 125.748L284.35 134.743L301.385 143.288L307.874 103.377L301.096 131.23L296.559 145.807L289.185 146.789Z" fill="#520000"/>
<path d="M260.504 116.91L291.996 139.063L283.212 144.335L275.215 141.541L287.687 138.395L289.501 140.229L260.504 116.91Z" fill="#520000"/>
<path d="M275.215 141.541L275.597 138.071L284.34 135.393L289.082 134.435L273.48 133.357L285.786 142.79L260.504 116.91L291.996 139.063L283.212 144.335L275.215 141.541Z" fill="#520000"/>
<path d="M94.574 215.086L125.202 201.431L110.038 222.946L127.014 202.865L146.172 193.827L114.581 194.934L94.574 215.086Z" fill="#520000"/>
<path d="M146.172 193.827L142.031 189.717L125.202 191.474L116.578 193.045L140.658 182.595L94.574 215.086L125.202 201.431L110.038 222.946L127.014 202.865L146.172 193.827Z" fill="#520000"/>
<path d="M197.883 185.342L228.753 182.112L204.246 191.838L248.797 180.862L225.07 177.045L197.883 185.342Z" fill="#520000"/>
<path d="M248.797 180.862L248.347 178.018L234.977 176.628L227.706 176.285L251.798 173.903L197.883 185.342L228.753 182.112L204.246 191.838L248.797 180.862Z" fill="#520000"/>
<path d="M275.01 89.1133L275.987 82.9334L272.997 84.0907L269.937 88.8666L273.408 86.0729L277.53 84.1578L275.01 89.1133Z" fill="#6B0000"/>
<path d="M269.937 88.8666L272.801 88.9708L276.046 91.7612L274.426 90.2606L275.987 82.9334L272.997 84.0907L269.937 88.8666Z" fill="#6B0000"/>
<path d="M161.762 62.3129L187.679 58.3576L204.307 69.2325L201.21 58.4077L148.595 58.9754L161.762 62.3129Z" fill="#520000"/>
<path d="M201.21 58.4077L195.53 53.9269L180.426 50.9325L172.975 49.9512L191.157 47.6929L161.762 62.3129L187.679 58.3576L204.307 69.2325L201.21 58.4077Z" fill="#520000"/>
<path d="M305.589 98.8747L305.589 98.1581L302.396 97.0981L302.003 100.309L302.003 91.7036L299.853 92.4208L299.134 101.026L302.003 103.895L307.334 105.417L307.334 104.619L311.328 95.2895L305.589 98.8747Z" fill="#6B0000"/>
<path d="M307.334 105.417L312.581 101.853L315.248 97.0981L309.322 105.417L313.478 97.0981L307.334 104.619L299.853 92.4208L299.134 101.026L302.003 103.895L307.334 105.417Z" fill="#6B0000"/>
<path d="M294.647 143.289L299.187 131.929L298.059 123.285L303.962 108.903L302.396 118L304.381 123.299L306.305 114.696L302.003 103.895L291.153 130.193L289.105 139.81L296.334 126.768L294.647 143.289Z" fill="#6B0000"/>
<path d="M159.863 59.0827L167.615 62.0395L168.51 64.1609L164.006 62.1425L171.547 60.0081L173.193 56.3003L172.698 50.7782L159.19 55.4334L169.646 58.9794L159.863 59.0827Z" fill="#6B0000"/>
<path d="M172.698 50.7782L167.487 47.1621L162.092 46.3814L171.984 48.9234L149.964 52.4021L159.19 55.4334L169.847 51.7609L164.006 62.1425L171.547 60.0081L173.193 56.3003L172.698 50.7782Z" fill="#6B0000"/>
<path d="M211.263 55.5839L199.03 55.4288L191.368 55.5839L175.826 55.2415L178.707 51.6509L189.11 53.6819L180.39 54.977L173.193 56.3003L200.296 63.5503L210.007 62.0056L195.238 59.9454L211.263 55.5839Z" fill="#6B0000"/>
<path d="M156.249 201.938L152.009 210.635L158.681 209.79L160.637 220.078L169.794 229.401L177.693 229.401L167.754 214.34L163.527 207.744L166.971 199.638L154.547 205.795L163.008 202.261L156.249 201.938Z" fill="#6B0000"/>
<path d="M166.971 199.638L165.886 194.092L162.732 192.688L167.754 196.888L160.637 193.184L156.583 191.299L152.075 192.18L154.547 205.795L160.637 220.078L169.794 229.401L177.693 229.401L167.754 214.34L163.527 207.744L166.971 199.638Z" fill="#6B0000"/>
<path d="M193.786 199.311L185.529 198.49L180.185 198.346L169.794 197.09L174.223 191.975L179.943 195.452L173.095 196.925L163.527 207.744L168.875 199.859L174.223 191.975L188.528 208.649L179.842 204.917L193.786 199.311Z" fill="#6B0000"/>
<path d="M244.5 123.582L247.473 123.432L250.446 123.282L252.595 119.721L250.679 116.983L248.234 121.905L247.249 125.58L244.5 123.582Z" fill="#6B0000"/>
<path d="M250.679 116.983L243.181 121.78L241.311 123.354L235.663 127.66L243.155 124.626L250.446 123.282L252.595 119.721L250.679 116.983Z" fill="#6B0000"/>
<path d="M170.659 203.116L169.596 201.753L169.596 185.864L171.33 220.349L158.812 185.12L170.809 207.789L164.844 215.484L170.659 203.116Z" fill="#BB0000"/>
<path d="M158.812 185.12L163.417 202.23L154.266 206.451L150.681 196.41L155.701 203.116L159.773 200.604L162.049 193.224L169.596 201.753L169.596 185.864L171.33 220.349L158.812 185.12Z" fill="#BB0000"/>
<path d="M176.602 52.6685L175.823 53.1934L161.451 54.1872L176.806 55.231L163.29 58.206L180.766 52.3142L180.758 54.5266L176.602 52.6685Z" fill="#BB0000"/>
<path d="M176.806 55.231L186.597 59.2408L174.338 57.7827L171.335 60.4354L187.262 55.161L178.965 57.3284L171.32 56.8485L175.823 53.1934L161.451 54.1872L176.806 55.231Z" fill="#BB0000"/>
<path d="M309 88.6748L310.192 83.0117L308.907 82.6177L307.103 87.7863L309 88.6748Z" fill="#520000"/>
<path d="M308.907 82.6177L309.589 81.2384L310.874 81.6324L310.192 83.0117L308.907 82.6177Z" fill="#520000"/>
<path d="M311.369 92.1394L312.351 87.6961L311.462 87.4229L310.064 91.4971L311.369 92.1394Z" fill="#520000"/>
<path d="M311.462 87.4229L311.976 86.3304L312.864 86.6036L312.351 87.6961L311.462 87.4229Z" fill="#520000"/>
<path d="M305.52 88.5437L306.502 84.1004L305.614 83.8273L304.215 87.9014L305.52 88.5437Z" fill="#520000"/>
<path d="M305.614 83.8273L306.127 82.7347L306.502 84.1004L305.614 83.8273Z" fill="#520000"/>
<path d="M312.692 98.3422L313.347 94.9851L312.458 94.7132L311.37 97.757L312.692 98.3422Z" fill="#520000"/>
<path d="M312.458 94.7132L312.885 93.9066L313.774 94.1785L313.347 94.9851L312.458 94.7132Z" fill="#520000"/>
<path d="M184.873 97.7042L182.565 102.001L171.409 101.798L186.448 99.0763L184.873 97.7042Z" fill="#520000"/>
<path d="M171.409 101.798L182.749 103.674L181.639 102.917L182.565 102.001L171.409 101.798Z" fill="#520000"/>
<path d="M151.226 137.498L148.918 141.795L137.762 141.592L152.801 138.87L151.226 137.498Z" fill="#520000"/>
<path d="M137.762 141.592L149.102 143.467L147.992 142.71L148.918 141.795L137.762 141.592Z" fill="#520000"/>
<path d="M212.147 77.384L219.565 84.5836L200.904 79.3119L215.385 79.879L212.147 77.384Z" fill="#520000"/>
<path d="M200.904 79.3119L220.622 86.8453L218.434 85.3607L219.565 84.5836L200.904 79.3119Z" fill="#520000"/>
<path d="M213.211 98.019L208.06 100.088L189.398 94.8161L201.305 96.4176L213.211 98.019Z" fill="#520000"/>
<path d="M73.7718 194.871L71.464 199.168L60.3082 198.965L75.3471 196.243L73.7718 194.871Z" fill="#520000"/>
<path d="M60.3082 198.965L71.6482 200.84L70.5377 200.084L71.464 199.168L60.3082 198.965Z" fill="#520000"/>
<path d="M99.5895 115.982L96.924 120.809L85.3204 121.269L101.146 117.382L99.5895 115.982Z" fill="#520000"/>
<path d="M85.3204 121.269L97.0137 122.621L95.9036 121.864L96.924 120.809L85.3204 121.269Z" fill="#520000"/>
<path d="M211.202 130.941L212.67 126L179.358 121.751L218.494 130.283L211.202 130.941Z" fill="#520000"/>
<path d="M179.358 121.751L216.435 124.508L211.7 124.774L212.67 126L179.358 121.751Z" fill="#520000"/>
<path d="M145.489 47.1341L143.181 51.4313L132.025 51.2283L147.064 48.5062L145.489 47.1341Z" fill="#520000"/>
<path d="M132.025 51.2283L143.365 53.1034L142.255 52.3467L143.181 51.4313L132.025 51.2283Z" fill="#520000"/>
<path d="M165.421 120.738L155.419 116.005L140.631 115.194L165.36 119.439L165.421 120.738Z" fill="#520000"/>
<path d="M140.631 115.194L152.992 114.263L152.699 114.957L155.419 116.005L140.631 115.194Z" fill="#520000"/>
<path d="M45.0845 253.752L49.9484 253.955L38.7925 253.752L46.6598 255.124L45.0845 253.752Z" fill="#BB0000"/>
<path d="M38.7925 253.752L50.1326 255.627L49.022 254.87L49.9484 253.955L38.7925 253.752Z" fill="#BB0000"/>
<path d="M129.711 55.8128L134.575 56.0157L123.419 55.8127L131.286 57.1848L129.711 55.8128Z" fill="#BB0000"/>
<path d="M123.419 55.8127L134.759 57.6878L133.648 56.9311L134.575 56.0157L123.419 55.8127Z" fill="#BB0000"/>
<path d="M50.6613 236.635L49.9657 242.705L57.1374 237.996L43.1418 237.996L50.6613 236.635Z" fill="#6B0000"/>
<path d="M62.9267 223.284L63.4393 227.565L50.2673 222.483L56.597 222.884L62.9267 223.284Z" fill="#6B0000"/>
<path d="M90.0097 257.473L88.1078 262.825L84.522 258.523L84.522 251.351L92.4109 249.916L90.0097 257.473Z" fill="#6B0000"/>
<path d="M177.674 135.789L178.187 140.07L165.015 134.988L171.344 135.389L177.674 135.789Z" fill="#6B0000"/>
<path d="M99.7302 194.597L105.489 190.626L84.6913 197.32L98.3178 187.758L99.7302 194.597Z" fill="#6B0000"/>
<path d="M99.7302 194.597L105.489 190.626L84.6913 197.32L98.3178 187.758L99.7302 194.597Z" fill="#6B0000"/>
<path d="M272.04 96.479L272.591 89.5053L264.666 109.866L265.842 93.2606L272.04 96.479Z" fill="#6B0000"/>
<path d="M128.56 164.107L132.577 159.797L132.025 152.616L130.292 158.361L128.56 164.107Z" fill="#6B0000"/>
<path d="M158.697 40.7641L158.29 42.9724L153.54 42.1721L156.118 41.4681L158.697 40.7641Z" fill="#6B0000"/>
<path d="M220.399 64.4043L221.974 75.9372L197.612 70.1999L221.975 65.7764L220.399 64.4043Z" fill="#520000"/>
<path d="M197.612 70.1999L220.4 71.8139L219.289 71.0571L221.974 75.9372L197.612 70.1999Z" fill="#520000"/>
</g>
<defs>
<filter id="filter0_i" x="38.7925" y="38.8132" width="276.456" height="228.012" filterUnits="userSpaceOnUse" color-interpolation-filters="sRGB">
<feFlood flood-opacity="0" result="BackgroundImageFix"/>
<feBlend mode="normal" in="SourceGraphic" in2="BackgroundImageFix" result="shape"/>
<feColorMatrix in="SourceAlpha" type="matrix" values="0 0 0 0 0 0 0 0 0 0 0 0 0 0 0 0 0 0 127 0" result="hardAlpha"/>
<feOffset dy="4"/>
<feGaussianBlur stdDeviation="2"/>
<feComposite in2="hardAlpha" operator="arithmetic" k2="-1" k3="1"/>
<feColorMatrix type="matrix" values="0 0 0 0 0 0 0 0 0 0 0 0 0 0 0 0 0 0 0.25 0"/>
<feBlend mode="normal" in2="shape" result="effect1_innerShadow"/>
</filter>
</defs>
</svg>
